<?xml version="1.0" encoding="iso-8859-1"?>
<!-- Uploaded to: SVG Repo, www.svgrepo.com, Generator: SVG Repo Mixer Tools -->
<svg fill="#000000" height="800px" width="800px" version="1.1" id="Layer_1" xmlns="http://www.w3.org/2000/svg" xmlns:xlink="http://www.w3.org/1999/xlink" 
	 viewBox="0 0 512 512" xml:space="preserve">
<g>
	<g>
		<g>
			<path d="M76.8,409.512c28.237,0,51.2-22.963,51.2-51.2c0-28.237-22.963-51.2-51.2-51.2c-28.237,0-51.2,22.963-51.2,51.2
				C25.6,386.549,48.563,409.512,76.8,409.512z"/>
			<path d="M76.8,426.667c-41.361,0-76.8,28.151-76.8,51.2v25.6C0,508.177,3.814,512,8.533,512h136.533
				c4.719,0,8.533-3.823,8.533-8.533v-25.6C153.6,454.818,118.161,426.667,76.8,426.667z"/>
			<path d="M204.8,358.312c0,28.237,22.963,51.2,51.2,51.2s51.2-22.963,51.2-51.2c0-28.237-22.963-51.2-51.2-51.2
				S204.8,330.075,204.8,358.312z"/>
			<path d="M256,426.667c-41.361,0-76.8,28.151-76.8,51.2v25.6c0,4.71,3.814,8.533,8.533,8.533h136.533
				c4.719,0,8.533-3.823,8.533-8.533v-25.6C332.8,454.818,297.361,426.667,256,426.667z"/>
			<path d="M384,358.312c0,28.237,22.963,51.2,51.2,51.2c28.237,0,51.2-22.963,51.2-51.2c0-28.237-22.963-51.2-51.2-51.2
				C406.963,307.112,384,330.075,384,358.312z"/>
			<path d="M435.2,426.667c-41.361,0-76.8,28.151-76.8,51.2v25.6c0,4.71,3.814,8.533,8.533,8.533h136.533
				c4.719,0,8.533-3.823,8.533-8.533v-25.6C512,454.818,476.561,426.667,435.2,426.667z"/>
			<path d="M76.8,273.067c4.719,0,8.533-3.823,8.533-8.533v-25.6c0-28.237,22.963-51.2,51.2-51.2h110.933v76.8
				c0,4.71,3.814,8.533,8.533,8.533s8.533-3.823,8.533-8.533v-76.8h110.933c28.237,0,51.2,22.963,51.2,51.2v25.6
				c0,4.71,3.814,8.533,8.533,8.533s8.533-3.823,8.533-8.533v-25.6c0-37.641-30.626-68.267-68.267-68.267H264.533v-34.133h128
				c14.114,0,25.6-11.486,25.6-25.6V25.6c0-14.114-11.486-25.6-25.6-25.6H119.467c-14.114,0-25.6,11.486-25.6,25.6v85.333
				c0,14.114,11.486,25.6,25.6,25.6h128v34.133H136.533c-37.641,0-68.267,30.626-68.267,68.267v25.6
				C68.267,269.244,72.081,273.067,76.8,273.067z M332.8,42.667c0-4.71,3.814-8.533,8.533-8.533H358.4
				c14.114,0,25.6,11.486,25.6,25.6s-11.486,25.6-25.6,25.6h-8.533v8.533c0,4.71-3.814,8.533-8.533,8.533
				c-4.719,0-8.533-3.823-8.533-8.533V42.667z M273.067,34.133H307.2c4.719,0,8.533,3.823,8.533,8.533
				c0,4.71-3.814,8.533-8.533,8.533h-8.533v42.667c0,4.71-3.814,8.533-8.533,8.533s-8.533-3.823-8.533-8.533V51.2h-8.533
				c-4.719,0-8.533-3.823-8.533-8.533C264.533,37.956,268.348,34.133,273.067,34.133z M179.2,93.867c0,4.71-3.814,8.533-8.533,8.533
				s-8.533-3.823-8.533-8.533V76.8h-17.067v17.067c0,4.71-3.814,8.533-8.533,8.533S128,98.577,128,93.867v-51.2
				c0-4.71,3.814-8.533,8.533-8.533s8.533,3.823,8.533,8.533v17.067h17.067V42.667c0-4.71,3.814-8.533,8.533-8.533
				s8.533,3.823,8.533,8.533V93.867z M238.933,51.2H230.4v42.667c0,4.71-3.814,8.533-8.533,8.533s-8.533-3.823-8.533-8.533V51.2
				H204.8c-4.719,0-8.533-3.823-8.533-8.533c0-4.71,3.814-8.533,8.533-8.533h34.133c4.719,0,8.533,3.823,8.533,8.533
				C247.467,47.377,243.652,51.2,238.933,51.2z"/>
			<path d="M366.933,59.733c0-4.702-3.823-8.533-8.533-8.533h-8.533v17.067h8.533C363.11,68.267,366.933,64.435,366.933,59.733z"/>
		</g>
	</g>
</g>
</svg>